<?xml version="1.0" encoding="UTF-8"?>
<!DOCTYPE svg PUBLIC "-//W3C//DTD SVG 1.1//EN" "http://www.w3.org/Graphics/SVG/1.1/DTD/svg11.dtd">
<!-- Creator: CorelDRAW 2020 (64-Bit) -->
<svg xmlns="http://www.w3.org/2000/svg" xml:space="preserve" width="2in" height="2in" version="1.1" style="shape-rendering:geometricPrecision; text-rendering:geometricPrecision; image-rendering:optimizeQuality; fill-rule:evenodd; clip-rule:evenodd"
viewBox="0 0 2000 2000"
 xmlns:xlink="http://www.w3.org/1999/xlink"
 xmlns:xodm="http://www.corel.com/coreldraw/odm/2003">
 <defs>
  <style type="text/css">
   <![CDATA[
    .fil0 {fill:#666666}
    .fil1 {fill:#2A292A;fill-rule:nonzero}
    .fil5 {fill:#8B5E3C;fill-rule:nonzero}
    .fil2 {fill:#FFD2B4;fill-rule:nonzero}
    .fil4 {fill:#262234;fill-rule:nonzero;fill-opacity:0.101961}
    .fil3 {fill:white;fill-rule:nonzero;fill-opacity:0.101961}
   ]]>
  </style>
 </defs>
 <g id="Layer_x0020_1">
  <metadata id="CorelCorpID_0Corel-Layer"/>
  <g id="_1751293472000">
   <rect class="fil0" x="0" y="0" width="2000" height="2000"/>
   <g>
    <path class="fil1" d="M239.25 2000l26.49 -93.83c53.09,-177.01 216.08,-298.31 400.91,-298.31 0.82,0 1.69,0 2.5,0l661.76 0.01c0.81,-0.01 1.68,-0.01 2.5,-0.01 184.82,0 347.82,121.31 400.91,298.31l26.44 93.83 -1521.51 0z"/>
    <path class="fil2" d="M1183.59 1421.54l0 251.03c-0.01,16.33 -9.26,31.25 -23.86,38.55l-140.43 70.22c-5.98,2.98 -12.59,4.54 -19.28,4.54 -6.69,0 -13.29,-1.56 -19.26,-4.54l-140.43 -70.22c-14.61,-7.3 -23.85,-22.22 -23.87,-38.55l-0 -251.03c0,-23.82 19.33,-43.14 43.14,-43.14l280.4 0c0.15,-0 0.31,-0 0.46,-0 23.82,0 43.14,19.32 43.14,43.14 0,0 0,0 0,0l0 0z"/>
    <path class="fil3" d="M1183.59 1607.86l0 65.17c-0.01,16.33 -9.26,31.25 -23.86,38.55l-140.43 70.21c-5.97,3.02 -12.58,4.6 -19.28,4.6 -6.69,0 -13.3,-1.58 -19.26,-4.6l-140.43 -70.22c-14.61,-7.29 -23.85,-22.22 -23.87,-38.55l-0 -65.17 -91.79 0 0 65.17c0.68,50.36 29.61,96.16 74.81,118.41l137.68 70.22c18.84,9.21 39.59,14.04 60.57,14.04 20.99,0 41.74,-4.83 60.57,-14.06l137.68 -70.22c46.98,-20.93 77.87,-66.98 79.39,-118.4l0.01 -65.16 -91.79 0z"/>
    <path class="fil2" d="M1000.02 286.62c504.82,0 463.52,495.18 463.52,495.18 74.35,-7.8 133.09,22.49 133.09,131.26 0,108.77 -45.89,131.25 -103.72,137.67 -6.56,0.46 -11.71,5.81 -11.93,12.39 -17.44,169.34 -133.09,293.25 -246.91,376.31 -67.73,49.88 -149.69,76.83 -233.82,76.83 -84.12,0 -166.08,-26.95 -233.8,-76.81 -113.81,-83.07 -229.46,-207.44 -246.91,-376.32 -0.23,-6.59 -5.38,-11.94 -11.94,-12.41 -58.28,-5.97 -103.72,-28.91 -103.72,-137.67 0,-108.76 55.99,-137.68 130.33,-131.26 -0.46,0 -41.77,-495.17 465.8,-495.17z"/>
    <path class="fil4" d="M1183.59 1470.19l0 91.78c-56.41,30.08 -119.57,45.89 -183.57,45.89 -64,0 -127.15,-15.8 -183.58,-45.91l0.02 -91.76c56.42,30.08 119.57,45.89 183.57,45.89 64,0 127.16,-15.81 183.59,-45.91l-0.02 0.02z"/>
    <path class="fil5" d="M1000.02 214.11c-405.23,0 -519.04,307.94 -519.04,583.75 1.05,32.76 5.87,65.59 14.23,97.3 8.26,33.04 95,31.67 100.5,0 -0.6,-12.22 -0.88,-24.6 -0.88,-36.9 0,-94.88 17.64,-189.1 51.81,-277.51 7.02,-17.33 23.87,-28.71 42.59,-28.71 1.72,0 3.45,0.1 5.16,0.29 102.8,15.15 418.54,54.15 608.99,5.5 4,-1.11 8.15,-1.68 12.31,-1.68 18.9,0 35.88,11.61 42.75,29.22 32.62,87.17 49.52,179.81 49.52,273.02 0,12.24 -0.28,24.58 -0.85,36.73 5.05,29.37 91.79,30.75 100.5,0 7.56,-31.79 11.62,-64.51 11.94,-97.24 -0.48,-276.29 -113.84,-583.77 -519.53,-583.77z"/>
    <path class="fil1" d="M1249.21 1159.95c-60.1,-16.01 -118.3,-39.77 -172.52,-70.23 -10.28,-5.83 -21.89,-8.91 -33.68,-8.91 -15.68,0 -30.87,5.43 -43,15.34 -12.13,-9.92 -27.31,-15.34 -42.99,-15.34 -11.79,0 -23.41,3.08 -33.65,8.91 -54.26,30.46 -112.46,54.22 -172.56,70.22 -10.37,2.22 -17.8,11.39 -17.8,22 0,9.01 5.38,17.15 13.67,20.68 46.11,21.57 96.54,32.86 147.48,32.86 9.59,0 19.22,-0.43 28.76,-1.19 30.27,-1.03 58.56,-15.52 77.09,-39.47 18.52,23.95 46.82,38.44 77.1,39.46 9.53,0.77 19.16,1.2 28.74,1.2 50.94,0 101.37,-11.29 147.47,-32.87 8.3,-3.52 13.67,-11.67 13.67,-20.67 0,-10.61 -7.42,-19.78 -17.8,-22l0 0.01zm255.62 -679.21l-77.1 -238.19c-23.61,-72.8 -91.5,-122.14 -168.06,-122.14 -13.54,0 -27.11,1.57 -40.29,4.66l-178.98 41.76c-13.24,3.08 -26.8,4.67 -40.39,4.67 -13.59,0 -27.15,-1.59 -40.37,-4.68l-178.98 -41.76c-13.19,-3.08 -26.76,-4.65 -40.3,-4.65 -76.55,0 -144.44,49.33 -168.06,122.13l-77.1 238.19c-141.35,21.57 -229.46,52.31 -229.46,85.81 0,65.63 329.05,118.41 734.28,118.41 405.23,0 734.28,-53.24 734.28,-118.41 0,-33.96 -87.65,-64.24 -229.46,-85.81zm5.05 332.26l-183.57 19.28c0.49,6.92 0.79,13.94 0.79,20.9 0,30.52 -5.11,60.85 -15.03,89.69 -19.34,45.93 -64.34,75.8 -114.17,75.8 -1.39,0 -2.85,-0.03 -4.22,-0.08 -5.99,0.74 -12.07,1.13 -18.11,1.13 -49.47,0 -95.65,-24.94 -122.78,-66.28 -16,-33.49 -24.33,-70.24 -24.33,-107.39 0,-0.3 0,-0.61 0,-0.91 -0.48,-6.98 -6.28,-12.4 -13.28,-12.4 -0.01,0 -0.02,0 -0.03,0l-26.62 0c-0,0 -0.02,0 -0.02,0 -6.99,0 -12.79,5.41 -13.27,12.39 0,0.31 0,0.62 0,0.92 0,37.15 -8.34,73.9 -24.34,107.39 -27.12,41.34 -73.3,66.28 -122.77,66.28 -6.04,0 -12.12,-0.39 -18.11,-1.13 -1.37,0.05 -2.82,0.08 -4.22,0.08 -49.83,0 -94.83,-29.87 -114.19,-75.79 -9.92,-28.85 -15.02,-59.18 -15.02,-89.7 0,-6.96 0.3,-13.98 0.81,-20.91l-183.57 -19.28c-20,-2.09 -35.23,-18.9 -35.35,-39l0 0c0.65,-20.22 16.52,-36.69 36.72,-38.09l409.36 22.48c30.59,2.45 61.95,3.67 94.07,3.67l0 0c30.59,0 61.96,-1.22 94.08,-3.67l412.11 -22.48c0.6,-0.03 1.22,-0.05 1.83,-0.05 21.8,0 39.47,17.67 39.47,39.47 0,0.01 0,0.03 0,0.05l0 0c-0.85,19.89 -16.41,36.03 -36.25,37.63z"/>
   </g>
  </g>
 </g>
</svg>
