<?xml version="1.0" encoding="UTF-8"?>
<!DOCTYPE svg PUBLIC "-//W3C//DTD SVG 1.1//EN" "http://www.w3.org/Graphics/SVG/1.1/DTD/svg11.dtd">
<!-- Creator: CorelDRAW 2020 (64-Bit) -->
<svg xmlns="http://www.w3.org/2000/svg" xml:space="preserve" width="3.50056in" height="1.95172in" version="1.1" style="shape-rendering:geometricPrecision; text-rendering:geometricPrecision; image-rendering:optimizeQuality; fill-rule:evenodd; clip-rule:evenodd"
viewBox="0 0 5282.96 2945.5"
 xmlns:xlink="http://www.w3.org/1999/xlink"
 xmlns:xodm="http://www.corel.com/coreldraw/odm/2003">
 <defs>
  <style type="text/css">
   <![CDATA[
    .fil0 {fill:black}
    .fil1 {fill:black;fill-rule:nonzero}
   ]]>
  </style>
 </defs>
 <g id="Layer_x0020_1">
  <metadata id="CorelCorpID_0Corel-Layer"/>
  <g id="_2204301539776">
   <rect class="fil0" x="-0" y="1424.99" width="5282.96" height="95.53"/>
   <path class="fil0" d="M2641.48 2283.22l810.46 -810.46 -810.46 -810.46 -810.46 810.46 810.46 810.46zm-641.39 -810.46l641.39 641.39 641.39 -641.39 -641.39 -641.39 -641.39 641.39z"/>
   <path class="fil0" d="M2641.48 1070.3c-222.29,0 -402.45,180.16 -402.45,402.45 0,222.24 180.16,402.45 402.45,402.45 222.29,0 402.45,-180.21 402.45,-402.45 0,-222.29 -180.16,-402.45 -402.45,-402.45zm0 126.49c-152.38,0 -275.97,123.53 -275.97,275.97 0,152.38 123.53,275.97 275.97,275.97 152.38,0 275.97,-123.53 275.97,-275.97 0,-152.44 -123.53,-275.97 -275.97,-275.97z"/>
   <path class="fil0" d="M3596.6 1070.36c-222.24,0 -402.45,180.16 -402.45,402.45 0,222.24 180.21,402.45 402.45,402.45 222.24,0 402.45,-180.21 402.45,-402.45 0,-222.24 -180.16,-402.45 -402.45,-402.45zm0 126.48c-152.38,0 -275.97,123.53 -275.97,275.97 0,152.38 123.53,275.97 275.97,275.97 152.38,0 275.97,-123.53 275.97,-275.97 0,-152.44 -123.53,-275.97 -275.97,-275.97z"/>
   <path class="fil0" d="M1686.3 1070.36c-222.24,0 -402.45,180.16 -402.45,402.45 0,222.24 180.16,402.45 402.45,402.45 222.24,0 402.45,-180.16 402.45,-402.45 0,-222.24 -180.21,-402.45 -402.45,-402.45zm0 126.48c-152.38,0 -275.97,123.53 -275.97,275.97 0,152.38 123.53,275.97 275.97,275.97 152.38,0 275.97,-123.53 275.97,-275.97 0,-152.44 -123.53,-275.97 -275.97,-275.97z"/>
   <path class="fil1" d="M471.4 401.66l2141.17 2379.09 65.37 0 2137.37 -2379.09c15.11,-20.96 31.47,-31.47 49.07,-31.47 52.2,0 78.6,32.14 78.6,95.7 0,20.27 -6.3,37.71 -18.86,52.36l-2161.9 2406.29c-12.55,13.97 -30.16,20.96 -52.82,20.96l-128.3 0c-22.66,0 -40.27,-6.99 -52.82,-20.96l-2165.65 -2406.29c-15.11,-16.76 -22.66,-36.35 -22.66,-59.41 0,-19.54 7.55,-39.13 22.66,-58.67 15.11,-19.54 32.71,-30.05 52.2,-30.05 20.11,0 38.96,10.45 56.62,31.47l0 0 -0.05 0.06z"/>
   <path class="fil1" d="M4052.15 79.57l0 1966.13c0,30.72 -6.99,51.69 -20.96,62.87l-435.96 431.81c-22.38,13.97 -43.33,20.96 -62.87,20.96l-1781.66 0c-19.54,0 -40.49,-6.99 -62.87,-20.96l-435.96 -431.07c-13.97,-13.97 -20.96,-34.93 -20.96,-62.87l0 -1966.81c0,-30.72 10.45,-51.69 31.47,-62.87 20.96,-11.19 38.45,-16.76 52.36,-16.76 55.89,0 83.83,26.58 83.83,79.62l0 1938.19 379.39 375.93 1727.19 0 379.39 -375.93 0 -1938.19c0,-30.72 10.45,-51.69 31.47,-62.87 20.96,-11.19 38.45,-16.76 52.42,-16.76 55.89,0 83.83,26.58 83.83,79.62l0 0 -0.12 -0.05z"/>
  </g>
 </g>
</svg>
